<svg
  xmlns="http://www.w3.org/2000/svg"
  width="24"
  height="24"
  viewBox="0 0 24 24"
  fill="none"
>
  <path
    d="M16.9999 6.99945H17.0099M2.99994 12C2.99994 9.48639 2.99994 8.22958 3.35348 7.21924C3.9867 5.40959 5.40953 3.98676 7.21918 3.35354C8.22952 3 9.48633 3 11.9999 3C14.5135 3 15.7703 3 16.7807 3.35354C18.5903 3.98676 20.0131 5.40959 20.6464 7.21924C20.9999 8.22958 20.9999 9.48639 20.9999 12C20.9999 14.5136 20.9999 15.7704 20.6464 16.7808C20.0131 18.5904 18.5903 20.0132 16.7807 20.6465C15.7703 21 14.5135 21 11.9999 21C9.48633 21 8.22952 21 7.21918 20.6465C5.40953 20.0132 3.9867 18.5904 3.35348 16.7808C2.99994 15.7704 2.99994 14.5136 2.99994 12ZM15.7774 11.4398C15.8952 12.2344 15.7595 13.0458 15.3895 13.7588C15.0196 14.4718 14.4343 15.0499 13.7168 15.4111C12.9993 15.7722 12.1862 15.8979 11.3932 15.7703C10.6002 15.6427 9.86762 15.2683 9.29965 14.7003C8.73168 14.1323 8.35726 13.3997 8.22966 12.6067C8.10205 11.8137 8.22775 11.0006 8.58887 10.2831C8.94999 9.56564 9.52816 8.98031 10.2411 8.61036C10.9541 8.24042 11.7655 8.1047 12.56 8.22253C13.3705 8.3427 14.1208 8.72036 14.7002 9.29971C15.2795 9.87907 15.6572 10.6294 15.7774 11.4398Z"
    stroke="white"
    stroke-width="2"
    stroke-linecap="round"
    stroke-linejoin="round"
  />
</svg>
