<svg
  xmlns="http://www.w3.org/2000/svg"
  width="24"
  height="24"
  viewBox="0 0 24 24"
  fill="none"
>
  <path
    d="M10 12L9 16M14 12L15 16M8 7.01576C8.4168 7 8.91369 7 9.52713 7H14.4729C15.0863 7 15.5832 7 16 7.01576M8 7.01576C7.3199 7.04146 6.85304 7.10912 6.44103 7.28717C5.85495 7.54044 5.34931 7.94921 4.97886 8.46921C4.55883 9.05881 4.3897 9.84808 4.05144 11.4266L3.65879 13.259C3.09109 15.9083 2.80723 17.2329 3.1554 18.2714C3.46072 19.1822 4.08355 19.9526 4.91008 20.442C5.85261 21 7.20731 21 9.91672 21H14.0833C16.7927 21 18.1474 21 19.0899 20.442C19.9165 19.9526 20.5393 19.1822 20.8446 18.2714C21.1928 17.2329 20.9089 15.9083 20.3412 13.259L19.9486 11.4266C19.6103 9.84808 19.4412 9.05881 19.0211 8.46921C18.6507 7.94921 18.1451 7.54044 17.559 7.28717C17.147 7.10912 16.6801 7.04146 16 7.01576M8 7.01576C8 4.82986 9.80754 3 12 3C14.1925 3 16 4.82986 16 7.01576"
    stroke="white"
    stroke-width="2"
    stroke-linecap="round"
    stroke-linejoin="round"
  />
</svg>
